<svg height="987" width="2500" xmlns="http://www.w3.org/2000/svg" viewBox="119.66566708818755 140.486 2728.724332911813 911.0740000000002"><linearGradient id="a" gradientUnits="userSpaceOnUse" x1="318.609" x2="318.414" y1="962.235" y2="965.396"><stop offset="0" stop-color="#17241a" stop-opacity="0"/><stop offset="1" stop-opacity=".008"/></linearGradient><g fill="#020204"><path d="M152.809 392.953l327.881-63.287c49.058-9.418 98.878-17.496 147.573-28.545l199.118 64.264c32.363 10.426 65.878 19.683 97.574 31.864l-.041 405.162c-.251 82.421-2.293 164.924-.964 247.349-36.007-.08-72.086-1.03-108.071-.83-.243-28.71-.253-57.426-.029-86.137l-106.934.187a6592.47 6592.47 0 0 1-.188-86.119c.012-15.251-1.51-32.287 1.026-47.256 4.154-24.52 20.803-53.226 27.58-78.181 5.436-20.014 2.444-68.256 2.482-91.353l-69.141-21.972c-12.462-3.929-25.67-7.269-37.762-12.183.026 18.934 2.398 75.51-1.879 90.768-6.276 22.39-26.391 55.648-28.589 76.28-1.178 11.06-.62 22.546-.615 33.664l.053 55.178c.027 55.59-.578 111.238.121 166.824l-171.963.2c-29.302.05-58.903 1-88.176.05-.311-28.86-.394-57.719-.247-86.58-7.844-2.425-48.935-.936-60.228-.952-25.129.062-50.369.97-75.483.573-.567-33.939-.749-68.219.218-102.146-17.999 3.254-36.437 6.031-54.198 10.347zm307.793 123.242c10.621 7.977 21.017 17.077 30.694 26.17 1.693 1.649 2.187 2.705 4.588 2.935 1.962-4.694.068-13.912-.274-19.183 10.277-.744 20.343-2.867 30.575-3.736 6.483 6.772 14.388 12.379 20.102 19.792 5.393-7.756 35.932-43.426 36.615-48.892-.577-.019-1.663-.175-2.197.001a9435.018 9435.018 0 0 0-120.103 22.913zm-68.409 216.5a2592.624 2592.624 0 0 1-21.104 30.689c6.166-1.476 12.298-3.095 18.621-3.731 7.643-1.325 15.473-2.404 22.963-4.425-6.992-7.176-13.229-15.821-20.48-22.533zM329.87 541.246c-23.008 4.744-46.22 8.65-69.323 12.904-15.817 2.912-31.672 6.514-47.615 8.57 10.628 9.012 21.605 17.806 31.596 27.526l1.736 1.415 1.04-.935c.104-6.289-1.336-12.564-2.431-18.735 10.416-1.459 20.88-3.229 31.34-4.293l21.103 19.255c11.717-15.666 26.268-29.672 37.277-45.769-1.834-.493-2.887-.371-4.723.062z"/><path d="M580.705 493.282c.534-.176 1.62-.02 2.197-.001-.683 5.466-31.222 41.136-36.615 48.892-5.714-7.413-13.619-13.02-20.102-19.792-10.232.869-20.298 2.992-30.575 3.736.342 5.271 2.236 14.489.274 19.183-2.401-.23-2.895-1.286-4.588-2.935-9.677-9.093-20.073-18.193-30.694-26.17a9435.018 9435.018 0 0 1 120.103-22.913zM329.87 541.246c1.836-.433 2.889-.555 4.723-.062-11.009 16.097-25.56 30.103-37.277 45.769l-21.103-19.255c-10.46 1.064-20.924 2.834-31.34 4.293 1.095 6.171 2.535 12.446 2.431 18.735l-1.04.935-1.736-1.415c-9.991-9.72-20.968-18.514-31.596-27.526 15.943-2.056 31.798-5.658 47.615-8.57 23.103-4.254 46.315-8.16 69.323-12.904z" fill-opacity=".016"/><path d="M392.193 732.695c7.251 6.712 13.488 15.357 20.48 22.533-7.49 2.021-15.32 3.1-22.963 4.425-6.323.636-12.455 2.255-18.621 3.731a2592.624 2592.624 0 0 0 21.104-30.689z" fill-opacity=".02"/><path d="M2660.29 390.565c1.11-.213 2.24-.367 3.36-.459 40.38-3.58 87.41 12.112 118.33 37.98 38.48 32.199 57.4 76.628 61.8 125.9 4.61 51.591-7.12 105.354-40.93 145.669-30.77 36.694-73.63 53.984-120.5 58.183-47.42.482-91.46-9.369-127.67-41.889-35.31-31.718-54.32-78.24-56.74-125.194-2.77-53.853 8.7-106.927 45.86-147.752 29.76-32.7 72.74-50.357 116.49-52.438zm22.83 290.213c21.83-3.924 40.26-14.992 53.03-33.302 19.9-28.51 24.05-67.705 17.98-101.212-4.62-25.511-16.72-50.743-38.57-65.765a79.116 79.116 0 0 0-54.14-13.088c-22.41 3.749-40.92 14.008-54.2 32.642-20.15 28.285-24.91 66.838-19.12 100.442 4.43 25.687 16 51.753 37.97 67.062 16.95 11.811 36.75 16.141 57.05 13.221z"/><path d="M2661.42 467.411a79.116 79.116 0 0 1 54.14 13.088c21.85 15.022 33.95 40.254 38.57 65.765 6.07 33.507 1.92 72.702-17.98 101.212-12.77 18.31-31.2 29.378-53.03 33.302-20.3 2.92-40.1-1.41-57.05-13.221-21.97-15.309-33.54-41.375-37.97-67.062-5.79-33.604-1.03-72.157 19.12-100.442 13.28-18.634 31.79-28.893 54.2-32.642z" fill-opacity=".008"/><path d="M2053.81 396.981c28.73.571 57.54.117 86.28.042 39.75-.103 79.74-2.219 117.24 13.46 27.56 11.524 50.08 31.621 61.49 59.527 11.23 27.457 11.36 61.729-.16 89.117-9.93 23.594-29.14 44.658-53.04 54.469 13.04 22.359 31.32 45.727 46.2 67.187 16.2 23.371 31.65 48.777 49.68 70.719-20.31.504-40.68.228-61 .225-13.07.274-26.13-.923-39.22-.788-26.68-39.456-51.52-80.251-78.77-119.299-15.18.17-30.35.221-45.53.154-.2 39.926-.2 79.853.01 119.78l-83.17.211zm83.12 164.917c29.11.118 63.7 3.558 88.42-14.948 8.98-8.54 13.29-17.892 13.63-30.37.32-11.909-2.43-23.569-10.93-32.324-14.83-15.278-39.58-16.463-59.55-16.531l-31.55.041zM1349.04 396.806c18.76.495 37.64.078 56.41.088 15.84.009 31.91.665 47.7-.706a10611.15 10611.15 0 0 0-91.25 97.863c-13.47 14.436-27.07 31.877-42.49 44.077 6.48 7.803 12 16.972 17.77 25.327l34.42 49.783c31.89 46.125 64.52 91.831 95.81 138.367l-107.88.21c-18.11-27.452-37.04-54.42-55.6-81.572-15.16-22.168-29.93-44.77-45.78-66.43-12.93 16.669-28.73 31.971-43.05 47.515a6274.83 6274.83 0 0 0-.16 99.884c-12.23 1.39-25.49.501-37.83.554-15.21.066-31.08 1.091-46.2-.329-1.2-43.581-.67-87.377-.68-130.975l.6-223.55c27.98.705 56.12.092 84.12.075-.28 46.332-.24 92.666.11 138.998l-.4 14.378c3.04-3.147 6.56-6.297 8.87-10.024l81.59-93.505c14.56-16.703 28.7-33.924 43.92-50.028zM1604.24 396.713c27.75 1.29 55.95.276 83.75.259l-.17 133.794c-.05 29.468-2.72 61.7 3.05 90.657 3.04 15.244 8.94 29.899 19.99 41.165 12.95 13.21 30.8 19.104 49.02 19.182 18.25.079 36.61-5.92 49.66-19.025 11.19-11.248 16.89-26.333 19.94-41.622 5.89-29.546 3.42-62.132 3.4-92.168l-.01-132.076c27.67.578 55.44.178 83.12.111l-.07 78.26c.02 48.443 1.8 97.62-.44 145.973-1.71 36.891-14.95 73.791-42.86 99.013-33.8 30.557-81.57 39.698-125.85 37.416-39.72-2.047-79.67-15.373-106.86-45.566-15.92-17.682-26.26-39.408-31.52-62.532-8.02-35.239-4.68-93.949-4.66-131.072.03-40.376-1.49-81.46.51-121.769zM653.869 655.432c21.943 4.776 44.572 12.95 65.982 19.896.354 20.529 2.689 48.993-1.788 68.58-3.201 14.003-9.679 28.382-14.656 41.903-4.315 11.722-11.575 24.976-13.556 37.195-2.792 17.221-.987 36.907-.967 54.432l.007 105.538c35.688-.277 71.377-.305 107.065-.085.28 21.909.036 43.849.007 65.769-58.024.02-116.103.88-174.119.15-.374-57.443-.394-114.889-.06-172.332l.017-47.117c-.027-9.49-.658-19.547.589-28.956 3.282-24.75 24.035-54.598 30.102-80.068 3.871-16.253 1.47-47.186 1.377-64.905zM1918.8 833.821c13.13.336 26.32.109 39.45.148 14.75 22.781 30.51 44.979 45.83 67.383 7.65 11.18 16.19 22.375 22.59 34.3 22.89-33.894 46.31-67.498 68.61-101.777l37.64.133c-.04 70.421-1.69 141.183.07 211.562-15.66-.23-31.36.14-47.02.31-.44-39.84-1.93-83.971.32-123.348-16.09 18.68-32.8 45.87-47.29 66.626-8.54-.647-17.17-.317-25.72-.189-12.07-17.73-24.6-35.171-36.97-52.695-3.7-5.273-7.28-10.689-11.49-15.578.69 5.865 1.13 11.533 1.17 17.446-.94 35.695-.34 71.758 0 107.468-15.67-.37-31.36-.34-47.03.09-1.22-70.612.32-141.257-.16-211.879zM1218.97 830.587c15.1-2.009 32.93.709 47.11 6.171 21.06 8.115 35.98 22.649 45.11 43.361-13.7 8.433-27.89 16.106-41.6 24.532-1.1-1.91-2.25-3.797-3.42-5.66-6.98-11.002-15.97-19.326-29.01-22.126a51.047 51.047 0 0 0-38.22 7.165c-13.44 8.782-21.51 23.727-24.59 39.21-3.75 18.898-1.27 41.329 9.76 57.406a53.63 53.63 0 0 0 35.34 22.684c14.33 2.48 28.8.07 40.71-8.347 1.21-8.904.7-18.253.69-27.237l-36.97.279.09-43.401c8.84.869 17.98.396 26.87.338l59.12-.053-.13 89.451c-.7.88-1.42 1.75-2.16 2.61-18.13 21.59-42.64 29.87-70.01 32.19-28.44 2.4-58.13-4.96-80.14-23.6-22.44-19-34.13-46.778-36.46-75.702-2.44-30.416 5.94-61.866 25.97-85.259 18.31-21.391 44.34-31.933 71.94-34.012zM1591.55 833.687c14.56.972 29.73.516 44.31.01 12.13 32.946 26.47 65.41 39.64 97.969 15.38 38.025 29.96 76.654 46.76 114.064l-53.34.3c-6.04-14.23-10.86-28.98-16.72-43.3l-15.3.21-63.13.03c-4.4 14.42-10.05 28.87-15.66 42.86-16.66-.25-33.36-.04-50.03-.09 11.78-26.55 21.58-54.454 32.25-81.497 17.14-43.466 34.81-86.81 51.22-130.556zm24.7 127.208l20.34.116c-3.07-7.74-20.98-59.792-23.94-62.225-8.31 20.454-15.21 41.441-23.04 62.076zM2334.77 833.854c47.33.637 94.75.089 142.09.156-.15 14.646-.17 29.292-.06 43.938l-91.78-.058-.2 40.023 82.09.104.02 42.629c-11.54.422-76.39-1.668-81.71.956l-.29 4.148-.15 36.13 95.08.08c-.12 14.58-.11 29.17.04 43.75l-144.89.13c-1.63-70.617-.1-141.35-.24-211.986zM2738.77 830.5c15.28-3.198 37.74 2.721 51.24 10.086 15.92 8.682 25.99 21.66 30.98 38.972-13.47 7.569-28.36 14.663-40.88 23.658-2.25-4.97-4.69-10.131-8.25-14.313a38.847 38.847 0 0 0-26.88-13.684c-7.82-.595-16.98 1.159-22.95 6.565-3.11 2.823-4.98 6.636-5.17 10.865-.98 21.064 47.2 28.932 63.93 35.68 10.65 4.298 20.93 10.067 28.8 18.589 10.08 10.931 13.71 24.778 12.99 39.432-.81 16.36-6.69 31.55-19.08 42.61-16.1 14.39-44.4 22-65.72 20.76-13.22-1.71-25.62-3.04-38.19-7.91-22.5-8.72-34.93-23-44.56-44.803 13.08-8.507 28.28-14.808 40.49-24.473 3.15 6.756 7 13.248 12.39 18.456 9.18 8.863 23.26 13.95 35.98 13.62 7.33-.19 17.16-2.15 22.3-7.878 2.84-3.169 4.93-7.983 4.49-12.276-1.91-18.656-48.92-27.359-63.88-33.013-8.41-3.175-16.43-7.136-23.39-12.914-10.43-8.664-17.69-20.291-18.73-34.001-1.34-17.563 1.87-35.054 13.76-48.658 15.37-17.597 37.91-23.77 60.33-25.37zM182.665 885.23c1.606-.203 1.622-.042 2.997.856 1.228 31.81.293 63.949.238 95.795 45.101 1.569 90.676-.124 135.848.377l.209 66.672c-19.239-.09-38.476-.4-57.707-.95-48.077-.33-96.155-.36-144.233-.11a9761.348 9761.348 0 0 1 .113-150.939c20.75-4.293 41.698-7.844 62.535-11.701zM657.644 253.489c8.453.801 18.891 5.536 26.967 8.294 19.538 6.674 38.932 13.851 58.693 19.841-7.662 11.171-14.499 23.447-20.711 35.478l-87.085-28.203c7.422-11.709 15.513-23.238 22.136-35.41zM770.531 140.486l2.797.915c.539 6.694-51.623 102.898-58.771 117.32-2.637-1.398-5.489-2.502-8.222-3.705l-8.549-3.477c7.245-8.197 12.929-18.714 18.799-27.923l32.988-51.769c6.731-10.529 13.148-21.6 20.958-31.361z"/></g><path d="M281.39 961.348c11.293.016 52.384-1.473 60.228.952-.564 1.12-1.288 2.148-1.97 3.198-14.171 2.779-44.659.579-58.258-4.15z" fill="url(#a)"/><path d="M1965.99 938.142c-.04-5.913-.48-11.581-1.17-17.446 4.21 4.889 7.79 10.305 11.49 15.578l-3.98 4.07c-2.27-.406-4.24-2.055-6.34-2.202zM1215.06 535.985l1.56.204 1.03-3.833 1-.131c2.08 3.374.86 6.477 4.88 8.114-2.31 3.727-5.83 6.877-8.87 10.024z" fill="#020204" fill-opacity=".012"/></svg>