<svg xmlns="http://www.w3.org/2000/svg" width="913pt" height="1116pt" viewBox="0 0 913 1116"><g fill="#fff"><path d="M122.75 0h.16c111.94 111.78 223.78 223.65 335.73 335.42 5 39.33 9.96 78.66 14.91 118-46.39-19.22-92.79-38.44-139.16-57.71C263.85 263.81 193.41 131.84 122.75 0Zm367 357.69c36.9-48.96 73.94-97.8 110.91-146.7-7.89 60.33-15.77 120.67-23.69 180.99.06 1.37-1.19 2.07-2.08 2.83-24.3 18.85-48.5 37.83-72.78 56.71-4.14-31.27-8.17-62.56-12.36-93.83Zm81.71 76.62c9.47-7.07 18.6-14.66 28.29-21.4 104.15 2.84 208.31 5.98 312.47 8.95-101.82 28.67-203.68 57.21-305.51 85.86-2.3.51-4.75 1.98-7.03.66-27.21-11.06-54.44-22.05-81.65-33.08 17.8-13.68 35.62-27.33 53.43-40.99ZM100.9 527.9c79.09-32.86 158.19-65.67 237.29-98.51 40.92 16.57 81.84 33.13 122.76 49.71-27.32 20.95-54.63 41.91-81.96 62.84-92.7-4.7-185.4-9.33-278.09-14.04Zm404.51-26.93c22.96 9.52 45.94 19 68.88 28.58 18.7 44.4 37.49 88.77 56.21 133.16-38.26-29.3-76.52-58.62-114.77-87.93-3.45-24.6-6.89-49.2-10.32-73.81Zm-92.55 51.81c21.34-16.63 42.65-33.3 64-49.91 3.37 25.67 6.76 51.33 10.1 77-41.79 68.09-83.53 136.21-125.35 204.29 9.31-70.95 18.48-141.93 27.92-212.85 7.4-6.56 15.62-12.29 23.33-18.53ZM66.39 835.41c5.06-11.59 18.23-18.58 30.68-16.96 10.35 1.05 19.97 7.97 23.87 17.68 3.2 7.55 1.72 15.92 2.06 23.87-3.59 0-7.17 0-10.75-.01-.08-4.98.17-9.96-.13-14.92-.62-8.27-7.99-14.92-16.02-15.87-7.6-1.13-15.75 2.82-19.25 9.72-3 5.54-1.6 12.05-1.91 18.07.19 6.14-1.35 13.55 3.89 18.15 5.83 6.04 14.67 5.37 22.22 7.04 7.93 2.01 15.9 6.38 19.85 13.83 2.9 5.19 1.96 11.3 2.1 16.98-.18 6.98.85 14.33-2.09 20.91-4.61 11.28-16.87 18.62-28.97 17.8-11.06-.43-21.64-7.55-25.83-17.85-3.15-7.34-1.93-15.48-2.02-23.22 3.55.07 7.1.06 10.65.05.16 5.11-.3 10.26.28 15.36 1.7 9.79 12.41 16.59 22.04 14.62 7.97-1.31 14.85-8.44 14.97-16.67.04-6.71.1-13.42-.03-20.12-.31-5.43-5.2-9.21-9.97-10.88-5.5-2.17-11.57-.95-17.18-2.58-8.33-2.13-16.08-7.83-19.28-15.98-2.29-5.52-1.4-11.62-1.57-17.42.15-7.23-.87-14.86 2.39-21.6ZM135 818c3.59-.01 7.17-.01 10.75.01.02 35.32-.04 70.64.03 105.96.13 10.53 11.28 18.48 21.33 16.8 8.62-1.16 16.57-8.78 16.14-17.83-.01-34.98 0-69.95-.01-104.93 3.59-.02 7.17-.02 10.76-.01-.03 35.69.06 71.38-.05 107.07-.33 12.98-11.25 24.04-23.8 26.15-12.02 2.44-25.3-3.22-31.43-13.93-2.55-4.3-3.8-9.3-3.72-14.29.01-35-.01-70 0-105Zm72 0c4.02-.01 8.04-.01 12.06 0 12.72 33.8 25.07 67.75 38 101.47.43-33.81.07-67.64.18-101.46 3.59-.02 7.17-.02 10.76-.01v133c-3.22 0-6.44 0-9.65-.02-13.52-35.48-27-70.98-40.57-106.44-.06 35.48-.02 70.96-.02 106.45-3.55.01-7.1.01-10.64 0 .02-44.33-.12-88.66-.12-132.99Zm72.25.25c11.27.07 22.54-.15 33.8.11 13.69.81 24.86 13.16 25.79 26.59.34 6.67.1 13.35.15 20.03.06 8.08-5.06 15.1-11.18 19.9 8.47 5.13 15.22 13.94 15.85 24.07.21 8 .68 16.41-2.88 23.84-4.53 10.48-15.26 18.05-26.76 18.21-11.55.14-23.1.03-34.64.05.01-44.27-.13-88.53-.13-132.8M290 829v53c7.02-.04 14.04.06 21.05-.04 8.98-.03 17.04-8.02 17.16-17 .07-7.33.07-14.65 0-21.97-.26-8.14-8.59-13.6-16.13-13.91-7.36-.2-14.72-.03-22.08-.08m0 62c0 16.42-.01 32.83.01 49.24 8-.03 16 .07 24.01-.03 8.03-.17 16.48-5.22 18.55-13.32.84-5.28.3-10.66.4-15.97.13-10.21-8.7-19.54-18.92-19.85-8.01-.18-16.03-.02-24.05-.07Zm140.25-72.75c10.23.07 20.47-.17 30.7.12 13.62.86 25.43 12.86 25.87 26.54.14 7.06.03 14.13.06 21.19.07 8.12-5.26 15.12-11.4 19.91 6.9 4.73 12.38 12.34 12.5 20.94.05 14.68.01 29.36.02 44.05-3.59 0-7.18 0-10.76-.01.02-13-.01-25.99.02-38.98-.03-3.34.23-6.83-1.13-9.95-2.78-6.68-9.89-11.12-17.08-11.04-6.01-.07-12.03 0-18.05-.02-.01 20 0 40 0 60-3.55 0-7.09 0-10.63-.01.02-44.25-.14-88.49-.12-132.74M441 829v53c6.36-.06 12.72.11 19.07-.07 7.63-.19 14.89-6.23 15.72-13.94.34-4.67.06-9.36.15-14.03-.06-5.66.54-11.62-1.95-16.9-1.87-4.34-5.96-8.22-10.95-8.04-7.35-.07-14.69 0-22.04-.02Zm58-11c4.02-.01 8.04-.01 12.06 0 12.75 33.99 25.27 68.08 38.15 102.02.09-34.01.02-68.01.03-102.01 3.59-.02 7.17-.02 10.76-.01v133c-3.22 0-6.44 0-9.65-.02-13.51-35.46-26.97-70.95-40.56-106.37-.08 35.46-.02 70.92-.03 106.38-3.55.01-7.1.01-10.64 0 .02-44.33-.12-88.66-.12-132.99Zm166.2 42.23c3.72-14.09 6.07-28.49 8.38-42.87 3.89.62 7.79 1.24 11.71 1.78-1.33 11.83-3.9 23.49-6.46 35.11 17.64.01 35.28-.01 52.91.01.01 4.15.01 8.32.01 12.48-3.98.01-7.95 0-11.91.01-3.72 27.82-9.21 55.85-21.48 81.3 7.66 14.73 17.94 28.53 31.85 37.9 10.36-15.84 15.77-34.4 18.36-53 3.33-23.84 2.58-47.97 2.68-71.97v-43.22c3.99-.02 7.99-.02 11.99 0-.13 29.09.32 58.18-.3 87.26-.14 8.67-1.15 17.31-1.62 25.95 7.78 11.95 15.44 23.98 22.8 36.19-3.2 3.51-6.27 7.13-9.48 10.64-4.69-10.13-10.41-19.74-16.21-29.27-3.68 18.52-10.83 36.53-22.19 51.71-1.95-3.03-4.38-5.69-6.99-8.13a96.105 96.105 0 0 0-4.81 7.32c-14.29-9.67-24.98-23.75-32.93-38.89-9.88 15.73-23.21 29.39-39.15 39-1.82-4.16-4.3-7.98-7.07-11.55 16.61-9.71 30.49-23.91 39.75-40.78-7.73-18.47-12.42-38.03-16.37-57.61-3.06 8.96-7.1 17.59-11.88 25.76-2.65-3.77-5.57-7.35-8.68-10.73 8.11-13.73 13.13-29.03 17.09-44.4m10.33 10.86c3.59 21.18 8.34 42.31 16.31 62.32 8.96-21.14 13.06-43.98 16-66.64-10.74-.06-21.48.01-32.22-.04-.28 1.43-.44 2.89-.09 4.36ZM377.38 819.5c11.24-2.58 23.81-.04 32.61 7.59 5.46 4.63 8.98 11.65 8.76 18.88 0 26.36.02 52.71-.01 79.06.11 7.47-3.85 14.59-9.66 19.14-13.16 10.56-33.71 10.4-46.61-.51-5.79-4.77-9.53-12.11-9.23-19.68.06-26.69-.1-53.37.08-80.05.75-12.69 12.34-21.9 24.06-24.43m2.12 10.25c-7.32 1.6-15.16 7.01-15.45 15.17-.13 25.68.01 51.37-.07 77.05-.29 4.38.54 9.08 3.77 12.3 9.45 9.68 27.13 9.7 36.56-.02 3.76-3.72 3.93-9.24 3.7-14.18-.03-24.68 0-49.35-.02-74.03.22-4.73-2.32-9.21-6.05-11.98-6.3-4.76-14.83-6.06-22.44-4.31Z" opacity="1.00"/><path d="M589.49 841.75c.03-7.66-.01-15.33.03-22.99 3.73-.02 7.48-.02 11.23 0 .01 7.66-.02 15.33.01 22.99 7.99 0 15.99.01 23.99 0 .01-7.67-.01-15.33.01-22.99 3.74-.02 7.49-.02 11.23 0 .02 7.66-.01 15.33.02 23 6.24-.01 12.48-.01 18.73 0 .01 3.82.01 7.65 0 11.48-6.25.01-12.49 0-18.73 0-.02 8.17-.02 16.34 0 24.52 6.41-.01 12.82-.02 19.23 0 .01 3.91.01 7.82-.01 11.74h-86.97c-.02-3.92-.02-7.84 0-11.74 7.08-.01 14.15-.01 21.23-.01.03-8.16 0-16.32.02-24.48-6.08-.05-12.17-.01-18.25-.03-.02-3.83-.02-7.66 0-11.48 6.08-.01 12.15-.01 18.23-.01m11.27 11.5c-.02 8.16-.02 16.33 0 24.5h23.99c.01-8.17.01-16.34 0-24.5-8-.01-16-.01-23.99 0Zm191-30.74c30.41-.02 60.82-.01 91.24 0 0 18.24.01 36.49-.01 54.73-6.83.02-13.66-.01-20.49.02-.01 3.66-.02 7.32.01 10.99h24.98c.01 3.91.01 7.83 0 11.75-8.33.01-16.66-.01-24.99 0-.01 4.5-.01 8.99 0 13.5 10 .02 20-.02 30 .01-.01 3.99-.01 7.98 0 11.98-8.42.04-16.82-.03-25.23.03 8.26 9.62 18.37 17.84 30.01 22.99-3.08 3.06-5.8 6.47-8.21 10.07-14.1-7.74-25.97-19.46-34.48-33.06-11.12-.04-22.23-.05-33.35.01-9.67 12.81-22.02 23.79-36.27 31.26-2.33-3.63-4.95-7.12-8.25-9.93 11.25-5.17 21.61-12.36 30.16-21.34-8.88-.06-17.75-.01-26.62-.02-.02-4-.01-7.99-.01-11.98 9.83-.04 19.66-.01 29.49-.02.02-4.5.01-9 .02-13.49-7.67-.03-15.34 0-23-.02-.01-3.91-.02-7.83 0-11.73 7.66-.02 15.33 0 22.99-.02v-10.99c-6-.02-12 .01-17.99-.01-.01-18.25-.01-36.49 0-54.73m12.49 11.25c-.01 3.4-.01 6.81-.01 10.23 21.92.02 43.84.01 65.76.01 0-3.42 0-6.84-.01-10.25-21.91 0-43.83-.01-65.74.01m-.01 21.25v10.98c21.92.02 43.84.01 65.76.01v-11c-21.92 0-43.84-.01-65.76.01m18.52 22.24c-.02 3.66-.02 7.32 0 10.99 8.91.02 17.82.01 26.73.01.01-3.68.02-7.34 0-11-8.91 0-17.82-.01-26.73 0m-.01 22.76c-.01 4.49-.01 8.98 0 13.48 8.92.02 17.83.01 26.75.01V900c-8.92 0-17.83-.01-26.75.01Zm-57.99-4.8c4.41-14.09 7.79-28.49 10.54-42.99 3.64 1.64 7.3 3.25 10.93 4.94-4.17 14.22-7.75 28.64-12.72 42.62-2.94-1.5-5.83-3.05-8.75-4.57Zm-36.34 11.21c5.28-16.09 7.15-33.05 8.39-49.85 3.24.47 6.48.97 9.72 1.48-.92 17.91-2.84 35.97-8.37 53.11-3.31-1.46-6.55-3.06-9.74-4.74Zm-147.16-3.16c21.08 0 42.16-.03 63.24.01-.04 27.91.06 55.83-.04 83.74.09 4.42-2.38 9.14-6.91 10.28-6.83 1.65-13.95 1.38-20.93 1.45-.86-3.97-2.23-7.79-3.73-11.55 5.35.56 10.73.22 16.1.33 1.7.05 4.42-.1 4.18-2.48.22-6.67.01-13.36.08-20.03-13.59-.01-27.17-.03-40.76 0 .01 11.33.01 22.66 0 33.98-3.75.01-7.5.01-11.24 0 .01-31.91-.01-63.82.01-95.73m11.23 10.76c.01 4.98.01 9.97 0 14.96 13.59.03 27.17.02 40.76.01v-14.98c-13.59-.01-27.17-.03-40.76.01m.01 25.48c-.01 5-.01 9.99 0 15 13.58 0 27.16.01 40.75 0v-14.99c-13.59-.02-27.17-.02-40.75-.01Z" opacity="1.00"/><path d="M830.51 929.51c4.24-.02 8.48-.02 12.73 0 .02 10.34-.01 20.68.02 31.03 1.39.47 2.8.97 4.21 1.48 5.13-6.29 9.96-12.83 14.17-19.77 3.13 2.11 6.28 4.21 9.46 6.29-4.04 6.37-8.73 12.3-13.63 18.02 10.8 4.99 21.43 10.47 31.32 17.11-2.51 3.38-5.1 6.7-7.69 10.02-11.84-8.29-24.68-15.09-37.84-21.04-.31 6.66.66 13.44-.7 20.01-1.14 4.47-6.03 5.99-10.05 6.62-6.01.67-12.1.97-18.12.4-1.13-4.08-2.95-7.91-4.83-11.67 6.87.35 13.79.45 20.66-.07.59-5.32.14-10.68.3-16.01-15.38 6.94-30.7 14.01-46.08 20.95-1.73-3.91-3.44-7.82-5.17-11.72 17.23-6.61 34.25-13.75 51.21-21.01.05-10.21 0-20.43.03-30.64Z" opacity="1.00"/><path d="M801.64 947.14c3.06-2.24 6.11-4.51 9.27-6.62 5.05 5.45 10.1 11.02 13.76 17.54-3.2 2.48-6.44 4.9-9.65 7.36-3.38-6.81-8.26-12.72-13.38-18.28Zm-737.9 10.79c1.27.34 3.65-.69 4.05 1.18 3.71 10.15 7.5 20.27 11.16 30.44.11-10.52.02-21.04.05-31.55.82 0 2.45 0 3.26.01.01 13.66.01 27.33 0 41l-2.9-.04c-4.12-10.92-8.29-21.81-12.24-32.78-.26 10.93-.05 21.87-.12 32.81-.82 0-2.45 0-3.26-.01-.01-13.68-.01-27.37 0-41.06ZM86 958c5.25 0 10.5-.02 15.74.01 0 .81-.01 2.44-.01 3.25-4.15.01-8.31 0-12.46.01-.01 5.57 0 11.14-.01 16.72 3.66.01 7.33 0 10.99.01.01.89.03 1.8.04 2.71-3.68.02-7.35.02-11.02.03 0 4.99-.01 9.99 0 14.99 4.15 0 8.3-.01 12.45.01.01.81.02 2.43.03 3.24-5.25.03-10.5.01-15.75.02v-41Zm17.73.01c5.85-.02 11.69-.02 17.54 0-.01.81-.01 2.43-.01 3.25-2.33-.01-4.66 0-6.99.01-.02 12.57.01 25.15-.01 37.72-.81 0-2.44.01-3.26.01-.01-12.58.02-25.16-.01-37.74h-7.25c0-.81-.01-2.44-.01-3.25Zm20.07-.01c.85 0 2.54.01 3.39.01 1.57 10.06 3.2 20.11 4.74 30.18 1.83-10.06 3.5-20.14 5.3-30.21 1.05 0 2.1.02 3.15.05 1.63 10.09 3.59 20.13 5.15 30.23 1.71-10.07 3.21-20.17 4.82-30.26h3.37c-1.96 13.66-4 27.31-6.03 40.97-1.21 0-2.42.02-3.63.05-1.8-10.08-3.49-20.18-5.33-30.25-1.73 10.07-3.48 20.13-5.25 30.19-1.22.01-2.44.02-3.66.05-1.94-13.68-4-27.34-6.02-41.01Zm38.66.62c4.1-1.41 9.09-.3 12.01 2.96 2.29 2.6 1.79 6.21 1.81 9.4-.12 6.98.16 13.97-.11 20.95-1.74 9.58-18.04 9.7-20 .23-.4-8.4-.06-16.83-.17-25.24-.32-3.96 2.84-7.28 6.46-8.3m.95 3c-2.36.62-4.46 2.78-4.15 5.36.06 8.25-.12 16.51.09 24.76 1.43 4.82 8.41 5.44 11.96 2.6 2.24-1.79 1.65-4.86 1.71-7.34-.17-7.31.24-14.64-.19-21.93-1.44-3.58-6.06-4.47-9.42-3.45Zm17.33-3.61c4.71.35 10.3-1.27 14.24 2.12 3.59 3.24 3.17 8.54 2.91 12.93 0 2.53-1.65 4.52-3.28 6.28 6.13 4.64 2.83 13.15 3.65 19.65-.81.01-2.44.01-3.25.01-.06-4.35.07-8.69-.03-13.03.17-2.48-1.86-4.54-4.14-5.09-2.27-.29-4.56-.15-6.83-.14-.02 6.08 0 12.17-.01 18.26-.82 0-2.45 0-3.26-.01-.01-13.66-.01-27.32 0-40.98m3.27 3.26c-.02 5.57-.01 11.15-.01 16.73 3.56-.1 8.61 1.02 10.3-3.17.36-3.53.53-7.21-.09-10.69-1.48-4.43-6.75-2.5-10.2-2.87Zm17.73-3.26c.81-.01 2.44-.01 3.26-.01.01 6.07-.03 12.14.02 18.22 4.6-6.05 9.03-12.22 13.66-18.23h4.08c-3.99 5.3-7.98 10.6-11.81 16.02 3.62 8.31 7.18 16.65 10.72 25-.8-.01-2.4-.04-3.2-.05-3.29-7.49-6.6-14.98-9.93-22.46-1.21 1.47-2.57 2.87-3.43 4.6-.29 5.95-.02 11.93-.11 17.9h-3.26c-.01-13.67-.01-27.33 0-40.99Zm31.99 0c5.85-.02 11.69-.02 17.54 0-.01.81-.01 2.43-.01 3.25-2.33-.01-4.66 0-6.99.01-.02 12.58.01 25.15-.01 37.72-.81.01-2.44.01-3.26.01-.01-12.58.02-25.16-.01-37.74h-7.25c0-.82 0-2.44-.01-3.25ZM254 958c5.25 0 10.49-.02 15.74.01 0 .81 0 2.44-.01 3.25-4.15.01-8.3 0-12.46.01-.01 5.57 0 11.14-.01 16.72 3.66.01 7.32 0 10.98.01.02.89.04 1.78.07 2.69-3.69.05-7.36.04-11.04.05-.01 4.99-.01 9.99 0 14.99 4.15 0 8.3-.01 12.46.01 0 .81.01 2.43.01 3.25-5.24.02-10.49 0-15.74.01v-41Zm18.82 7.99c.87-7.68 12.23-10.77 17.05-4.82 2.22 2.16 2.12 5.42 2.2 8.29h-3.26c-.22-2.01.33-4.43-1.27-6-3.18-4.24-11.45-2.01-11.52 3.46-.04 7.72-.04 15.45 0 23.18-.21 5.36 7.72 7.85 11.17 4.1 1.9-1.5 1.53-4.08 1.6-6.2h3.26c.21 3.48-.37 7.46-3.49 9.58-5.47 4.44-15.31.75-15.79-6.48-.04-8.37-.13-16.75.05-25.11Zm22.92-7.98c.81-.01 2.44-.01 3.26-.01.01 6.66-.01 13.33 0 20 3.58 0 7.16 0 10.74-.01-.01-6.67-.01-13.33 0-19.99H313v41c-.82 0-2.45 0-3.26-.01-.02-6.09.02-12.18-.02-18.26-3.58-.01-7.15-.01-10.72.01-.01 6.08.01 12.17 0 18.26-.82 0-2.45 0-3.26-.01-.01-13.66-.01-27.32 0-40.98Zm21-.07c1.26.06 2.52.13 3.78.22 3.64 10.52 7.73 20.88 11.42 31.39.13-10.52.02-21.04.06-31.55.82 0 2.45 0 3.26.01.01 13.66.01 27.33 0 41-.73-.01-2.18-.04-2.91-.06-4.06-10.9-8.34-21.73-12.15-32.73-.44 10.91-.09 21.85-.2 32.78h-3.26c-.01-13.69-.01-27.37 0-41.06Zm28.7.68c4.28-1.46 9.66-.23 12.41 3.49 1.94 2.56 1.35 5.89 1.43 8.89-.11 6.96.15 13.94-.11 20.91-1.63 8.49-14.57 9.73-19.01 2.89-1.48-2.31-1.13-5.17-1.18-7.76.1-7.09-.09-14.17.07-21.25.19-3.52 3.18-6.2 6.39-7.17m1.01 2.99c-2.38.61-4.5 2.77-4.19 5.37.07 8.28-.13 16.57.1 24.85 1.8 5.61 11.63 5.67 13.52.07.28-8.31.05-16.65.11-24.96.33-4.8-5.76-6.64-9.54-5.33Zm17.29-3.6c.81-.01 2.44-.01 3.26-.01.01 12.58-.02 25.16.01 37.74 3.33-.01 6.65-.01 9.98 0 .01.81.01 2.44.01 3.26-4.42 0-8.84 0-13.26-.01-.01-13.66-.01-27.32 0-40.98Zm20.67.62c5.46-2.03 13.43.98 13.83 7.43-.01 8.63.15 17.28-.08 25.92-1.7 8.42-14.51 9.64-18.97 2.86-1.53-2.34-1.16-5.27-1.21-7.9.09-7.05-.08-14.1.07-21.14.18-3.51 3.16-6.2 6.36-7.17m1.02 2.99c-2.35.61-4.46 2.73-4.17 5.3.07 8.29-.13 16.6.09 24.89 1.51 4.76 8.41 5.35 11.95 2.53 2.23-1.76 1.66-4.81 1.72-7.28-.17-7.33.24-14.69-.2-22-1.44-3.56-6.04-4.46-9.39-3.44Zm17.39 4.36c.81-7.44 11.46-10.64 16.55-5.35 3.47 3.04 2.52 8.01 2.63 12.1-.82 0-2.45 0-3.27-.01-.26-3.08.86-6.67-1.24-9.29-3.18-4.24-11.48-1.92-11.47 3.56.02 8.28-.16 16.59.09 24.87 1.54 5.11 10.33 5.77 12.41.7.52-3.92.08-7.9.2-11.83-1.67-.01-3.34-.02-4.99-.01 0-.68 0-2.03.01-2.71 2.75-.02 5.5-.02 8.26-.01-.26 5.2.59 10.53-.5 15.65-2.63 6.79-12.77 7.28-17.05 1.87-2.11-2.33-1.72-5.64-1.73-8.51.11-7.01-.15-14.03.1-21.03Zm21.22-7.99c1.24 0 2.48.01 3.73.03 2.68 5.52 5.21 11.12 7.93 16.64 2.6-5.62 5.24-11.22 8.05-16.73l3.58.08c-3.25 7.1-6.9 14.03-9.94 21.21-.32 6.58-.02 13.18-.13 19.78H434c-.03-6.03.03-12.05 0-18.07.09-1.4-.45-2.68-1-3.9-2.99-6.35-6.02-12.67-8.96-19.04Zm34.7.02c.81-.01 2.44-.01 3.26-.01.01 12.58-.02 25.16.01 37.74 3.33-.01 6.65-.02 9.98 0 .01.81.01 2.44.01 3.26-4.42 0-8.84 0-13.26-.01-.01-13.66-.01-27.32 0-40.98Zm10.99 0c5.85-.02 11.69-.02 17.54 0-.01.81-.01 2.43-.01 3.25-2.34-.01-4.66 0-6.99.01-.02 12.58.01 25.15-.01 37.73H477c-.01-12.58.02-25.16-.01-37.74h-7.25c0-.81-.01-2.44-.01-3.25Zm20.27 0c3.84.08 7.73-.34 11.53.35 3.81.84 6.75 4.59 6.47 8.53-.03 8.09.08 16.18-.05 24.27-.11 4.16-3.94 7.52-7.97 7.75-3.32.22-6.65.04-9.98.08v-40.98m3.27 3.27c-.01 11.48-.01 22.96 0 34.44 3.83-.1 9.36 1.12 11.21-3.38.62-7.4.05-14.87.27-22.3-.16-2.42.61-5.47-1.55-7.21-2.72-2.43-6.64-1.36-9.93-1.55Zm25.55 4.73c.84-7.67 12.16-10.78 17.01-4.89 2.25 2.18 2.17 5.45 2.24 8.34h-3.26c-.22-2.01.33-4.42-1.26-5.99-3.19-4.26-11.48-2.01-11.53 3.46-.04 7.72-.04 15.45 0 23.17-.21 5.36 7.71 7.85 11.16 4.1 1.91-1.5 1.54-4.08 1.61-6.2h3.26c.21 3.48-.37 7.46-3.48 9.58-5.51 4.46-15.41.7-15.8-6.58-.03-8.33-.14-16.66.05-24.99Zm28.62-7.39c4.28-1.46 9.68-.23 12.42 3.51 1.92 2.53 1.35 5.82 1.42 8.78-.12 7.03.17 14.08-.12 21.11-1.85 9.53-18.11 9.56-20.01.08-.36-8.37-.05-16.77-.16-25.15-.32-3.95 2.82-7.29 6.45-8.33m1.05 2.98c-2.36.59-4.52 2.72-4.22 5.31.05 8.28-.13 16.57.08 24.85 1.72 5.71 11.74 5.76 13.55.06.24-8.3.04-16.62.09-24.93.29-4.76-5.74-6.57-9.5-5.29ZM510 994c1.24-.01 2.48-.01 3.74.01-.01 1.65-.01 3.31 0 4.98-1.26-.01-2.5 0-3.74.01 0-1.68-.01-3.35 0-5Z" opacity="1.00"/></g></svg>